<svg width="198" height="42" viewBox="0 0 198 42" fill="none" xmlns="http://www.w3.org/2000/svg">
<path d="M0.300049 21C0.300049 6.30745 5.80745 0.800049 20.5 0.800049C35.1926 0.800049 40.7001 6.30745 40.7001 21C40.7001 35.6926 35.1926 41.2001 20.5 41.2001C5.80745 41.2001 0.300049 35.6896 0.300049 21Z" fill="url(#paint0_linear_3956_938)"/>
<path d="M30.7149 24.2083L24.4591 11.5376C22.8711 8.31698 18.2803 8.31698 16.6923 11.5376L10.4365 24.2083C9.01633 27.0877 11.1108 30.457 14.3226 30.457H17.829V25.2543L16.2134 23.6385C15.5776 23.7954 14.7933 23.4513 14.807 22.6035C14.785 21.1721 17.0308 21.1721 17.0089 22.6035C17.0116 22.7247 16.9978 22.8347 16.9675 22.9338L17.7987 23.7651C18.0491 24.013 18.2968 24.2634 18.5445 24.5111C18.7097 24.6763 18.8473 24.8084 18.861 25.0671C18.8886 25.604 18.861 26.149 18.861 26.6886V30.457H20.0611V27.0243C19.7225 26.8702 19.4666 26.5509 19.4748 26.0637C19.4528 24.635 21.6986 24.635 21.6766 26.0637C21.6848 26.5482 21.4317 26.8674 21.0932 27.0216V30.457H22.3179V26.3802C22.3179 25.937 22.2876 25.4828 22.3179 25.0396C22.3371 24.7395 22.5821 24.5607 22.7803 24.3625C23.0583 24.0845 23.3362 23.8064 23.6142 23.5285C23.8124 23.3302 24.0105 23.132 24.2087 22.9338C24.1811 22.8347 24.1646 22.7247 24.1674 22.6035C24.1482 21.1721 26.3912 21.1721 26.372 22.6035C26.3829 23.4513 25.5985 23.7954 24.9628 23.6385C24.4261 24.1753 23.8867 24.7149 23.35 25.2516V30.457H26.8288C30.0406 30.457 32.1351 27.0877 30.7149 24.2083ZM20.5757 23.8258C19.1968 23.8258 18.0823 22.708 18.0823 21.329C18.0823 19.95 19.1968 18.8351 20.5757 18.8351C21.9546 18.8351 23.0692 19.9527 23.0692 21.329C23.0692 22.7053 21.9546 23.8258 20.5757 23.8258Z" fill="white"/>
<path d="M57.256 11.5602H60.7106L67.2667 30.3886H63.686L62.5513 27.0356H55.4153L54.2806 30.3886H50.7L57.256 11.5602ZM56.5752 23.6826H61.4166L58.9959 16.5381L56.5752 23.6826Z" fill="#030712"/>
<path d="M68.818 11.5602H72.2474V30.3886H68.818V11.5602Z" fill="#030712"/>
<path d="M82.2194 26.0555H74.3269V22.8572L82.0429 11.5602H85.5479V22.8572H88.2459V26.0555H85.5479V30.3886H82.2194V26.0555ZM82.2194 22.8572V16.796L78.0336 22.8572H82.2194Z" fill="#030712"/>
<path d="M89.5079 11.5602H93.0885L96.5683 24.74L100.426 11.5602H103.805L107.638 24.6885L111.093 11.5602H114.547L109.353 30.3886H105.948L102.091 17.1055L98.2324 30.3886H94.7528L89.5079 11.5602Z" fill="#030712"/>
<path d="M120.992 30.6981C119.832 30.6981 118.773 30.5003 117.815 30.1049C116.856 29.6922 116.033 29.1334 115.344 28.4284C114.671 27.7234 114.142 26.898 113.755 25.9523C113.385 24.9894 113.2 23.9663 113.2 22.883C113.2 21.7825 113.394 20.7508 113.78 19.7879C114.184 18.825 114.73 17.9911 115.419 17.2861C116.108 16.5811 116.915 16.0222 117.84 15.6096C118.781 15.1969 119.79 14.9905 120.866 14.9905C121.959 14.9905 122.967 15.1883 123.892 15.5838C124.833 15.962 125.64 16.5037 126.312 17.2087C126.985 17.8965 127.506 18.7133 127.876 19.6589C128.263 20.6047 128.456 21.6364 128.456 22.754V24.0695H116.453C116.689 25.1355 117.201 25.9953 117.991 26.6487C118.781 27.3021 119.782 27.6288 120.992 27.6288C121.95 27.6288 122.782 27.388 123.489 26.9066C124.194 26.4251 124.724 25.7804 125.077 24.9722L127.876 26.6229C127.237 27.8437 126.338 28.8324 125.178 29.589C124.035 30.3284 122.64 30.6981 120.992 30.6981ZM120.866 18.0598C119.841 18.0598 118.949 18.3435 118.193 18.911C117.454 19.4784 116.932 20.2264 116.63 21.1549H125.001C124.749 20.1404 124.262 19.3752 123.539 18.8594C122.816 18.3264 121.925 18.0598 120.866 18.0598Z" fill="#030712"/>
<path d="M129.981 11.3022H133.41V30.3886H129.981V11.3022Z" fill="#030712"/>
<path d="M135.497 11.3022H138.926V30.3886H135.497V11.3022Z" fill="#030712"/>
<path d="M140.89 15.3001H144.269V17.1571C144.756 16.5037 145.37 15.9792 146.109 15.5838C146.866 15.1883 147.723 14.9905 148.681 14.9905C150.514 14.9905 151.943 15.558 152.968 16.6928C154.01 17.8277 154.532 19.4096 154.532 21.4386V30.3886H151.077V21.7997C151.077 20.6305 150.8 19.7106 150.245 19.04C149.69 18.3521 148.858 18.0083 147.748 18.0083C146.773 18.0083 145.95 18.3607 145.277 19.0657C144.622 19.7707 144.294 20.7852 144.294 22.1093V30.3886H140.89V15.3001Z" fill="#030712"/>
<path d="M163.814 30.6981C162.655 30.6981 161.596 30.5003 160.637 30.1049C159.679 29.6922 158.855 29.1334 158.166 28.4284C157.493 27.7234 156.964 26.898 156.577 25.9523C156.208 24.9894 156.023 23.9663 156.023 22.883C156.023 21.7825 156.216 20.7508 156.603 19.7879C157.006 18.825 157.552 17.9911 158.242 17.2861C158.931 16.5811 159.738 16.0222 160.662 15.6096C161.604 15.1969 162.612 14.9905 163.688 14.9905C164.781 14.9905 165.79 15.1883 166.714 15.5838C167.656 15.962 168.463 16.5037 169.135 17.2087C169.807 17.8965 170.328 18.7133 170.698 19.6589C171.085 20.6047 171.278 21.6364 171.278 22.754V24.0695H159.275C159.511 25.1355 160.023 25.9953 160.814 26.6487C161.604 27.3021 162.604 27.6288 163.814 27.6288C164.772 27.6288 165.605 27.388 166.311 26.9066C167.017 26.4251 167.546 25.7804 167.9 24.9722L170.698 26.6229C170.06 27.8437 169.16 28.8324 168 29.589C166.857 30.3284 165.462 30.6981 163.814 30.6981ZM163.688 18.0598C162.663 18.0598 161.772 18.3435 161.015 18.911C160.276 19.4784 159.755 20.2264 159.452 21.1549H167.824C167.571 20.1404 167.084 19.3752 166.361 18.8594C165.638 18.3264 164.748 18.0598 163.688 18.0598Z" fill="#030712"/>
<path d="M178.351 30.6981C176.72 30.6981 175.367 30.3886 174.291 29.7695C173.215 29.1334 172.383 28.222 171.795 27.0356L174.947 25.488C175.3 26.193 175.779 26.7347 176.384 27.1129C176.989 27.4912 177.695 27.6804 178.502 27.6804C179.343 27.6804 179.973 27.4998 180.393 27.1387C180.814 26.7777 181.024 26.3478 181.024 25.8491C181.024 25.574 180.923 25.3505 180.721 25.1785C180.536 25.0065 180.284 24.8604 179.965 24.74C179.662 24.6025 179.301 24.4907 178.88 24.4047C178.46 24.3188 178.023 24.2242 177.569 24.121C176.93 24.0007 176.3 23.8459 175.678 23.6568C175.073 23.4504 174.526 23.1839 174.039 22.8572C173.551 22.5133 173.157 22.0834 172.854 21.5676C172.551 21.0345 172.4 20.3725 172.4 19.5816C172.4 18.9798 172.535 18.4037 172.803 17.8535C173.072 17.2861 173.459 16.7874 173.963 16.3575C174.468 15.9277 175.073 15.5924 175.779 15.3516C176.502 15.0937 177.308 14.9648 178.2 14.9648C179.679 14.9648 180.906 15.2485 181.881 15.8159C182.873 16.3661 183.655 17.1227 184.226 18.0856L181.326 19.5816C181.024 19.0485 180.603 18.6273 180.066 18.3178C179.528 18.0083 178.906 17.8535 178.2 17.8535C177.393 17.8535 176.796 18.0169 176.409 18.3436C176.022 18.6702 175.829 19.0485 175.829 19.4784C175.829 19.9771 176.115 20.3381 176.687 20.5617C177.258 20.768 178.099 20.9916 179.208 21.2323C179.813 21.3699 180.419 21.5332 181.024 21.7223C181.646 21.9115 182.209 22.178 182.713 22.5219C183.218 22.8486 183.621 23.2785 183.923 23.8115C184.243 24.3274 184.403 24.9808 184.403 25.7718C184.403 26.3048 184.285 26.8636 184.049 27.4483C183.814 28.0157 183.444 28.5487 182.94 29.0474C182.453 29.5288 181.83 29.9243 181.074 30.2338C180.318 30.5433 179.41 30.6981 178.351 30.6981Z" fill="#030712"/>
<path d="M191.648 30.6981C190.018 30.6981 188.664 30.3886 187.588 29.7695C186.513 29.1334 185.68 28.222 185.092 27.0356L188.244 25.488C188.597 26.193 189.076 26.7347 189.681 27.1129C190.287 27.4912 190.992 27.6804 191.799 27.6804C192.64 27.6804 193.27 27.4998 193.691 27.1387C194.111 26.7777 194.321 26.3478 194.321 25.8491C194.321 25.574 194.22 25.3505 194.018 25.1785C193.833 25.0065 193.581 24.8604 193.262 24.74C192.959 24.6025 192.598 24.4907 192.178 24.4047C191.758 24.3188 191.32 24.2242 190.866 24.121C190.228 24.0007 189.598 23.8459 188.975 23.6568C188.37 23.4504 187.824 23.1839 187.336 22.8572C186.849 22.5133 186.454 22.0834 186.151 21.5676C185.849 21.0345 185.697 20.3725 185.697 19.5816C185.697 18.9798 185.832 18.4037 186.101 17.8535C186.37 17.2861 186.757 16.7874 187.261 16.3575C187.765 15.9277 188.37 15.5924 189.076 15.3516C189.799 15.0937 190.606 14.9648 191.497 14.9648C192.976 14.9648 194.203 15.2485 195.178 15.8159C196.17 16.3661 196.952 17.1227 197.523 18.0856L194.624 19.5816C194.321 19.0485 193.901 18.6273 193.363 18.3178C192.825 18.0083 192.203 17.8535 191.497 17.8535C190.69 17.8535 190.093 18.0169 189.707 18.3436C189.32 18.6702 189.126 19.0485 189.126 19.4784C189.126 19.9771 189.413 20.3381 189.984 20.5617C190.555 20.768 191.396 20.9916 192.506 21.2323C193.111 21.3699 193.716 21.5332 194.321 21.7223C194.943 21.9115 195.506 22.178 196.011 22.5219C196.515 22.8486 196.918 23.2785 197.221 23.8115C197.54 24.3274 197.7 24.9808 197.7 25.7718C197.7 26.3048 197.582 26.8636 197.347 27.4483C197.112 28.0157 196.742 28.5487 196.237 29.0474C195.75 29.5288 195.128 29.9243 194.371 30.2338C193.615 30.5433 192.707 30.6981 191.648 30.6981Z" fill="#030712"/>
<defs>
<linearGradient id="paint0_linear_3956_938" x1="4.95944" y1="5.77007" x2="35.7113" y2="35.5902" gradientUnits="userSpaceOnUse">
<stop offset="0.0837671" stop-color="#0086FF"/>
<stop offset="0.333333" stop-color="#0086FF"/>
<stop offset="1" stop-color="#0077E3"/>
</linearGradient>
</defs>
</svg>
